<svg width="19" height="19" viewBox="0 0 19 19" fill="none" xmlns="http://www.w3.org/2000/svg">
<path d="M0.794813 13.538H4.02696L3.06261 17.9467C3.04155 18.0496 3.03095 18.1541 3.03096 18.2588C3.03096 18.7366 3.39084 19 3.88907 19C4.39769 19 4.76842 18.7461 4.87467 18.2684L5.91272 13.538H10.9248L9.96093 17.9467C9.92928 18.0441 9.91888 18.1614 9.91888 18.2588C9.91888 18.7366 10.2792 19 10.7878 19C11.2965 19 11.6672 18.7461 11.7734 18.2684L12.8002 13.538H16.583C17.1658 13.538 17.5686 13.148 17.5686 12.6212C17.5686 12.1921 17.2508 11.8409 16.7738 11.8409H13.1813L14.3057 6.69095H18.0144C18.5976 6.69095 19 6.30101 19 5.77416C19 5.3451 18.6822 4.99387 18.2052 4.99387H14.6765L15.5454 1.06328C15.5558 1.0046 15.5771 0.877672 15.5771 0.751161C15.5771 0.272998 15.2063 0 14.6977 0C14.1045 0 13.8396 0.302129 13.7333 0.760732L12.8011 4.99387H7.78853L8.65749 1.06328C8.66789 1.0046 8.68914 0.877672 8.68914 0.751161C8.68914 0.272998 8.30755 0 7.80978 0C7.20576 0 6.92997 0.302129 6.83457 0.760732L5.90232 4.99387H2.42694C1.84371 4.99387 1.44133 5.40336 1.44133 5.93979C1.44133 6.37883 1.75917 6.69095 2.23615 6.69095H5.53159L4.40809 11.8409H0.985604C0.40238 11.8409 0 12.2504 0 12.7868C0 13.2258 0.317835 13.538 0.794813 13.538ZM6.28345 11.8409L7.4178 6.69095H12.4295L11.2956 11.8409H6.28345Z" fill="#FFF7F7"/>
</svg>
