<svg width="11" height="17" viewBox="0 0 11 17" fill="none" xmlns="http://www.w3.org/2000/svg">
<path d="M1.65902 0.607143C1.65902 0.446119 1.59876 0.291689 1.4915 0.177828C1.38424 0.0639666 1.23876 0 1.08708 0C0.935389 0 0.789914 0.0639666 0.682654 0.177828C0.575395 0.291689 0.515137 0.446119 0.515137 0.607143V4.25C0.515002 4.94982 0.742645 5.62821 1.15954 6.17033C1.57643 6.71246 2.15697 7.08503 2.8029 7.225V16.3929C2.8029 16.5539 2.86315 16.7083 2.97041 16.8222C3.07767 16.936 3.22315 17 3.37484 17C3.52652 17 3.672 16.936 3.77926 16.8222C3.88652 16.7083 3.94678 16.5539 3.94678 16.3929V7.225C4.5927 7.08503 5.17324 6.71246 5.59013 6.17033C6.00703 5.62821 6.23467 4.94982 6.23453 4.25V0.607143C6.23453 0.446119 6.17428 0.291689 6.06702 0.177828C5.95976 0.0639666 5.81428 0 5.66259 0C5.51091 0 5.36543 0.0639666 5.25817 0.177828C5.15091 0.291689 5.09065 0.446119 5.09065 0.607143V4.25C5.09084 4.62682 4.98093 4.99443 4.77606 5.30217C4.57119 5.6099 4.28145 5.84261 3.94678 5.96821V0.607143C3.94678 0.446119 3.88652 0.291689 3.77926 0.177828C3.672 0.0639666 3.52652 0 3.37484 0C3.22315 0 3.07767 0.0639666 2.97041 0.177828C2.86315 0.291689 2.8029 0.446119 2.8029 0.607143V5.96821C2.46822 5.84261 2.17848 5.6099 1.97362 5.30217C1.76875 4.99443 1.65883 4.62682 1.65902 4.25V0.607143ZM9.66617 16.3929V8.5H7.95035C7.79867 8.5 7.65319 8.43603 7.54593 8.32217C7.43867 8.20831 7.37841 8.05388 7.37841 7.89286V3.03571C7.37841 2.23064 7.75132 1.47779 8.26034 0.936214C8.77052 0.395857 9.47972 0 10.2381 0C10.3898 0 10.5353 0.0639666 10.6425 0.177828C10.7498 0.291689 10.8101 0.446119 10.8101 0.607143V16.3929C10.8101 16.5539 10.7498 16.7083 10.6425 16.8222C10.5353 16.936 10.3898 17 10.2381 17C10.0864 17 9.94095 16.936 9.83369 16.8222C9.72643 16.7083 9.66617 16.5539 9.66617 16.3929Z" fill="#303030"/>
</svg>
