<svg width="21" height="22" viewBox="0 0 21 22" fill="none" xmlns="http://www.w3.org/2000/svg">
<path d="M12.6 21H8.9C5.41183 21 3.66727 21 2.5841 19.828C1.5 18.657 1.5 16.771 1.5 13V11C1.5 7.229 1.5 5.343 2.5841 4.172C3.66727 3 5.41183 3 8.9 3H12.6C16.0882 3 17.8327 3 18.9159 4.172C20 5.343 20 7.229 20 11V13C20 16.771 20 18.657 18.9159 19.828C18.3119 20.482 17.5025 20.771 16.3 20.898M6.125 3V1.5M15.375 3V1.5M19.5375 8H9.59375M1.5 8H5.08438" stroke="#303030" stroke-width="1.5" stroke-linecap="round"/>
<path d="M16.3002 16C16.3002 16.2652 16.2027 16.5196 16.0293 16.7071C15.8558 16.8946 15.6205 17 15.3752 17C15.1299 17 14.8946 16.8946 14.7211 16.7071C14.5476 16.5196 14.4502 16.2652 14.4502 16C14.4502 15.7348 14.5476 15.4804 14.7211 15.2929C14.8946 15.1054 15.1299 15 15.3752 15C15.6205 15 15.8558 15.1054 16.0293 15.2929C16.2027 15.4804 16.3002 15.7348 16.3002 16ZM16.3002 12C16.3002 12.2652 16.2027 12.5196 16.0293 12.7071C15.8558 12.8946 15.6205 13 15.3752 13C15.1299 13 14.8946 12.8946 14.7211 12.7071C14.5476 12.5196 14.4502 12.2652 14.4502 12C14.4502 11.7348 14.5476 11.4804 14.7211 11.2929C14.8946 11.1054 15.1299 11 15.3752 11C15.6205 11 15.8558 11.1054 16.0293 11.2929C16.2027 11.4804 16.3002 11.7348 16.3002 12ZM11.6752 16C11.6752 16.2652 11.5777 16.5196 11.4043 16.7071C11.2308 16.8946 10.9955 17 10.7502 17C10.5049 17 10.2696 16.8946 10.0961 16.7071C9.92265 16.5196 9.8252 16.2652 9.8252 16C9.8252 15.7348 9.92265 15.4804 10.0961 15.2929C10.2696 15.1054 10.5049 15 10.7502 15C10.9955 15 11.2308 15.1054 11.4043 15.2929C11.5777 15.4804 11.6752 15.7348 11.6752 16ZM11.6752 12C11.6752 12.2652 11.5777 12.5196 11.4043 12.7071C11.2308 12.8946 10.9955 13 10.7502 13C10.5049 13 10.2696 12.8946 10.0961 12.7071C9.92265 12.5196 9.8252 12.2652 9.8252 12C9.8252 11.7348 9.92265 11.4804 10.0961 11.2929C10.2696 11.1054 10.5049 11 10.7502 11C10.9955 11 11.2308 11.1054 11.4043 11.2929C11.5777 11.4804 11.6752 11.7348 11.6752 12ZM7.0502 16C7.0502 16.2652 6.95274 16.5196 6.77927 16.7071C6.6058 16.8946 6.37052 17 6.1252 17C5.87987 17 5.64459 16.8946 5.47112 16.7071C5.29765 16.5196 5.2002 16.2652 5.2002 16C5.2002 15.7348 5.29765 15.4804 5.47112 15.2929C5.64459 15.1054 5.87987 15 6.1252 15C6.37052 15 6.6058 15.1054 6.77927 15.2929C6.95274 15.4804 7.0502 15.7348 7.0502 16ZM7.0502 12C7.0502 12.2652 6.95274 12.5196 6.77927 12.7071C6.6058 12.8946 6.37052 13 6.1252 13C5.87987 13 5.64459 12.8946 5.47112 12.7071C5.29765 12.5196 5.2002 12.2652 5.2002 12C5.2002 11.7348 5.29765 11.4804 5.47112 11.2929C5.64459 11.1054 5.87987 11 6.1252 11C6.37052 11 6.6058 11.1054 6.77927 11.2929C6.95274 11.4804 7.0502 11.7348 7.0502 12Z" fill="#303030"/>
</svg>
