<svg width="21" height="22" viewBox="0 0 21 22" fill="none" xmlns="http://www.w3.org/2000/svg">
<path d="M12.6 21H8.9C5.41183 21 3.66727 21 2.5841 19.828C1.5 18.657 1.5 16.771 1.5 13V11C1.5 7.229 1.5 5.343 2.5841 4.172C3.66727 3 5.41183 3 8.9 3H12.6C16.0882 3 17.8327 3 18.9159 4.172C20 5.343 20 7.229 20 11V13C20 16.771 20 18.657 18.9159 19.828C18.3119 20.482 17.5025 20.771 16.3 20.898M6.125 3V1.5M15.375 3V1.5M19.5375 8H9.59375M1.5 8H5.08438" stroke="#303030" stroke-width="1.5" stroke-linecap="round"/>
</svg>
