<svg width="19" height="19" viewBox="0 0 19 19" fill="none" xmlns="http://www.w3.org/2000/svg">
<path d="M10.6695 18.625L9.55249 17.9375L12.1262 13.125H15.9868C16.1559 13.1253 16.3233 13.0899 16.4796 13.0209C16.6358 12.9519 16.7778 12.8506 16.8973 12.7229C17.0169 12.5951 17.1117 12.4435 17.1762 12.2765C17.2408 12.1096 17.2739 11.9306 17.2737 11.75V3.5C17.2739 3.31936 17.2408 3.14043 17.1762 2.97349C17.1117 2.80654 17.0169 2.65486 16.8973 2.52712C16.7778 2.39939 16.6358 2.29812 16.4796 2.22911C16.3233 2.16011 16.1559 2.12473 15.9868 2.125H3.11816C2.9491 2.12473 2.78164 2.16011 2.6254 2.22911C2.46916 2.29812 2.32719 2.39939 2.20765 2.52712C2.0881 2.65486 1.99332 2.80654 1.92874 2.97349C1.86416 3.14043 1.83104 3.31936 1.8313 3.5V11.75C1.83104 11.9306 1.86416 12.1096 1.92874 12.2765C1.99332 12.4435 2.0881 12.5951 2.20765 12.7229C2.32719 12.8506 2.46916 12.9519 2.6254 13.0209C2.78164 13.0899 2.9491 13.1253 3.11816 13.125H8.90905V14.5H3.11816C2.43557 14.5 1.78093 14.2103 1.29826 13.6945C0.815594 13.1788 0.544434 12.4793 0.544434 11.75V3.5C0.544349 3.13884 0.610863 2.7812 0.740175 2.44751C0.869487 2.11383 1.05906 1.81063 1.29807 1.55525C1.53708 1.29988 1.82084 1.09732 2.13314 0.959148C2.44544 0.820979 2.78015 0.74991 3.11816 0.75H15.9868C16.3248 0.74991 16.6595 0.820979 16.9718 0.959148C17.2841 1.09732 17.5679 1.29988 17.8069 1.55525C18.0459 1.81063 18.2355 2.11383 18.3648 2.44751C18.4941 2.7812 18.5606 3.13884 18.5605 3.5V11.75C18.5605 12.4793 18.2894 13.1788 17.8067 13.6945C17.324 14.2103 16.6694 14.5 15.9868 14.5H12.8758L10.6695 18.625Z" fill="#303030"/>
</svg>
