<svg width="25" height="20" viewBox="0 0 25 20" fill="none" xmlns="http://www.w3.org/2000/svg">
<path d="M12.4799 0C19.1442 0 24.5463 4.477 24.5463 10C24.5463 15.523 19.1442 20 12.4799 20C5.81568 20 0.413574 15.523 0.413574 10C0.413574 4.477 5.81568 0 12.4799 0ZM12.4799 2C9.91976 2 7.46447 2.84285 5.65416 4.34315C3.84386 5.84344 2.82684 7.87827 2.82684 10C2.82684 12.1217 3.84386 14.1566 5.65416 15.6569C7.46447 17.1571 9.91976 18 12.4799 18C15.0401 18 17.4954 17.1571 19.3057 15.6569C21.116 14.1566 22.133 12.1217 22.133 10C22.133 7.87827 21.116 5.84344 19.3057 4.34315C17.4954 2.84285 15.0401 2 12.4799 2ZM12.4799 4C12.7755 4.00003 13.0607 4.08996 13.2816 4.25272C13.5024 4.41547 13.6435 4.63975 13.6781 4.883L13.6866 5V9.586L16.9529 12.293C17.1693 12.473 17.295 12.7144 17.3043 12.9684C17.3137 13.2223 17.206 13.4697 17.0033 13.6603C16.8005 13.8508 16.5179 13.9703 16.2127 13.9944C15.9075 14.0185 15.6027 13.9454 15.3602 13.79L15.2467 13.707L11.6268 10.707C11.4393 10.5514 11.3189 10.349 11.2841 10.131L11.2733 10V5C11.2733 4.73478 11.4004 4.48043 11.6267 4.29289C11.853 4.10536 12.1599 4 12.4799 4Z" fill="#303030"/>
</svg>
