<svg width="6" height="9" viewBox="0 0 6 9" fill="none" xmlns="http://www.w3.org/2000/svg">
<path d="M3 4.275C2.71584 4.275 2.44332 4.15647 2.24239 3.9455C2.04145 3.73452 1.92857 3.44837 1.92857 3.15C1.92857 2.85163 2.04145 2.56548 2.24239 2.3545C2.44332 2.14353 2.71584 2.025 3 2.025C3.28416 2.025 3.55668 2.14353 3.75761 2.3545C3.95855 2.56548 4.07143 2.85163 4.07143 3.15C4.07143 3.29774 4.04372 3.44403 3.98987 3.58052C3.93603 3.71701 3.85711 3.84103 3.75761 3.9455C3.65812 4.04996 3.54001 4.13283 3.41002 4.18936C3.28003 4.2459 3.1407 4.275 3 4.275ZM3 0C2.20435 0 1.44129 0.331874 0.87868 0.922614C0.31607 1.51335 0 2.31457 0 3.15C0 5.5125 3 9 3 9C3 9 6 5.5125 6 3.15C6 2.31457 5.68393 1.51335 5.12132 0.922614C4.55871 0.331874 3.79565 0 3 0Z" fill="#303030"/>
</svg>
