<svg width="21" height="22" viewBox="0 0 21 22" fill="none" xmlns="http://www.w3.org/2000/svg">
<path d="M10.5525 5.5L11.7827 8.04581L14.4131 8.45419L12.4828 10.3125L13.1262 13.0625L10.5525 11.5156L7.97876 13.0625L8.62219 10.3125L6.69189 8.45419L9.39431 8.04581L10.5525 5.5Z" fill="#303030"/>
<path d="M11.6695 20.625L10.5525 19.9375L13.1262 15.125H16.9868C17.1559 15.1253 17.3233 15.0899 17.4796 15.0209C17.6358 14.9519 17.7778 14.8506 17.8973 14.7229C18.0169 14.5951 18.1117 14.4435 18.1762 14.2765C18.2408 14.1096 18.2739 13.9306 18.2737 13.75V5.5C18.2739 5.31936 18.2408 5.14043 18.1762 4.97349C18.1117 4.80654 18.0169 4.65486 17.8973 4.52712C17.7778 4.39939 17.6358 4.29812 17.4796 4.22911C17.3233 4.16011 17.1559 4.12473 16.9868 4.125H4.11816C3.9491 4.12473 3.78164 4.16011 3.6254 4.22911C3.46916 4.29812 3.32719 4.39939 3.20765 4.52712C3.0881 4.65486 2.99332 4.80654 2.92874 4.97349C2.86416 5.14043 2.83104 5.31936 2.8313 5.5V13.75C2.83104 13.9306 2.86416 14.1096 2.92874 14.2765C2.99332 14.4435 3.0881 14.5951 3.20765 14.7229C3.32719 14.8506 3.46916 14.9519 3.6254 15.0209C3.78164 15.0899 3.9491 15.1253 4.11816 15.125H9.90905V16.5H4.11816C3.43557 16.5 2.78093 16.2103 2.29826 15.6945C1.81559 15.1788 1.54443 14.4793 1.54443 13.75V5.5C1.54435 5.13884 1.61086 4.7812 1.74017 4.44751C1.86949 4.11383 2.05906 3.81063 2.29807 3.55525C2.53708 3.29988 2.82084 3.09732 3.13314 2.95915C3.44544 2.82098 3.78015 2.74991 4.11816 2.75H16.9868C17.3248 2.74991 17.6595 2.82098 17.9718 2.95915C18.2841 3.09732 18.5679 3.29988 18.8069 3.55525C19.0459 3.81063 19.2355 4.11383 19.3648 4.44751C19.4941 4.7812 19.5606 5.13884 19.5605 5.5V13.75C19.5605 14.4793 19.2894 15.1788 18.8067 15.6945C18.324 16.2103 17.6694 16.5 16.9868 16.5H13.8758L11.6695 20.625Z" fill="#303030"/>
</svg>
